<svg width="16" height="16" viewBox="0 0 16 16" fill="none" xmlns="http://www.w3.org/2000/svg">
<path d="M1.6665 2.83331C1.6665 2.7007 1.71918 2.57353 1.81295 2.47976C1.90672 2.38599 2.0339 2.33331 2.1665 2.33331H2.5385C3.17184 2.33331 3.55184 2.75931 3.7685 3.15531C3.91317 3.41931 4.01784 3.72531 4.09984 4.00265C4.12202 4.0009 4.14426 4.00001 4.1665 3.99998H12.4985C13.0518 3.99998 13.4518 4.52931 13.2998 5.06198L12.0812 9.33465C11.9719 9.71788 11.7407 10.0551 11.4227 10.2952C11.1046 10.5353 10.717 10.6652 10.3185 10.6653H6.35317C5.9515 10.6653 5.56094 10.5334 5.24152 10.2899C4.9221 10.0464 4.6915 9.70465 4.58517 9.31731L4.0785 7.46931L3.2385 4.63731L3.23784 4.63198C3.13384 4.25398 3.0365 3.89998 2.89117 3.63598C2.75184 3.37931 2.63984 3.33331 2.53917 3.33331H2.1665C2.0339 3.33331 1.90672 3.28063 1.81295 3.18687C1.71918 3.0931 1.6665 2.96592 1.6665 2.83331ZM5.0485 7.22665L5.54917 9.05265C5.64917 9.41398 5.97784 9.66531 6.35317 9.66531H10.3185C10.4996 9.66531 10.6758 9.60629 10.8204 9.49718C10.965 9.38808 11.0701 9.23483 11.1198 9.06065L12.2778 4.99998H4.38984L5.03917 7.19131L5.0485 7.22665Z" fill="#151875"/>
<path d="M7.33317 12.6666C7.33317 13.0203 7.19269 13.3594 6.94265 13.6095C6.6926 13.8595 6.35346 14 5.99984 14C5.64622 14 5.30708 13.8595 5.05703 13.6095C4.80698 13.3594 4.6665 13.0203 4.6665 12.6666C4.6665 12.313 4.80698 11.9739 5.05703 11.7238C5.30708 11.4738 5.64622 11.3333 5.99984 11.3333C6.35346 11.3333 6.6926 11.4738 6.94265 11.7238C7.19269 11.9739 7.33317 12.313 7.33317 12.6666ZM6.33317 12.6666C6.33317 12.5782 6.29805 12.4935 6.23554 12.4309C6.17303 12.3684 6.08824 12.3333 5.99984 12.3333C5.91143 12.3333 5.82665 12.3684 5.76413 12.4309C5.70162 12.4935 5.6665 12.5782 5.6665 12.6666C5.6665 12.7551 5.70162 12.8398 5.76413 12.9023C5.82665 12.9649 5.91143 13 5.99984 13C6.08824 13 6.17303 12.9649 6.23554 12.9023C6.29805 12.8398 6.33317 12.7551 6.33317 12.6666Z" fill="#151875"/>
<path d="M11.9997 12.6666C11.9997 13.0203 11.8592 13.3594 11.6092 13.6095C11.3591 13.8595 11.02 14 10.6663 14C10.3127 14 9.97358 13.8595 9.72353 13.6095C9.47348 13.3594 9.33301 13.0203 9.33301 12.6666C9.33301 12.313 9.47348 11.9739 9.72353 11.7238C9.97358 11.4738 10.3127 11.3333 10.6663 11.3333C11.02 11.3333 11.3591 11.4738 11.6092 11.7238C11.8592 11.9739 11.9997 12.313 11.9997 12.6666ZM10.9997 12.6666C10.9997 12.5782 10.9646 12.4935 10.902 12.4309C10.8395 12.3684 10.7547 12.3333 10.6663 12.3333C10.5779 12.3333 10.4932 12.3684 10.4306 12.4309C10.3681 12.4935 10.333 12.5782 10.333 12.6666C10.333 12.7551 10.3681 12.8398 10.4306 12.9023C10.4932 12.9649 10.5779 13 10.6663 13C10.7547 13 10.8395 12.9649 10.902 12.9023C10.9646 12.8398 10.9997 12.7551 10.9997 12.6666Z" fill="#151875"/>
</svg>
