<svg width="16" height="16" viewBox="0 0 16 16" fill="none" xmlns="http://www.w3.org/2000/svg">
<path d="M13.4399 3.07335C12.7321 2.36536 11.7937 1.9349 10.7953 1.86027C9.79701 1.78564 8.80505 2.07179 7.99986 2.66668C7.15163 2.03578 6.09585 1.74969 5.04514 1.86604C3.99442 1.98239 3.02682 2.49254 2.33717 3.29374C1.64753 4.09495 1.28707 5.1277 1.32839 6.18403C1.36971 7.24036 1.80974 8.2418 2.55986 8.98668L7.52652 13.9534C7.5885 14.0158 7.66223 14.0654 7.74347 14.0993C7.82471 14.1331 7.91185 14.1505 7.99986 14.1505C8.08787 14.1505 8.175 14.1331 8.25624 14.0993C8.33748 14.0654 8.41122 14.0158 8.47319 13.9534L13.4399 8.98668C13.8283 8.5985 14.1364 8.13758 14.3467 7.63026C14.5569 7.12294 14.6651 6.57917 14.6651 6.03002C14.6651 5.48086 14.5569 4.93709 14.3467 4.42977C14.1364 3.92246 13.8283 3.46154 13.4399 3.07335ZM12.4999 8.04668L7.99986 12.54L3.49986 8.04668C3.10331 7.64848 2.83317 7.14205 2.72334 6.59091C2.61351 6.03977 2.66888 5.46847 2.88249 4.94868C3.09611 4.42889 3.45846 3.98375 3.92409 3.6691C4.38972 3.35445 4.9379 3.18431 5.49986 3.18002C6.2506 3.18186 6.96992 3.48158 7.49986 4.01335C7.56183 4.07584 7.63557 4.12543 7.71681 4.15928C7.79805 4.19313 7.88518 4.21055 7.97319 4.21055C8.0612 4.21055 8.14834 4.19313 8.22958 4.15928C8.31082 4.12543 8.38455 4.07584 8.44652 4.01335C8.99207 3.54061 9.69685 3.29278 10.4182 3.32003C11.1396 3.34729 11.8237 3.64758 12.332 4.16014C12.8403 4.6727 13.1349 5.35924 13.1562 6.08081C13.1774 6.80238 12.9238 7.50508 12.4465 8.04668H12.4999Z" fill="#151875"/>
</svg>
